<svg width="20" height="19" viewBox="0 0 20 19" fill="none" xmlns="http://www.w3.org/2000/svg">
<path d="M8.38151 0.837231C8.12524 0.820992 7.86065 0.877038 7.6224 1.01522C6.98706 1.38436 6.77447 2.19415 7.14714 2.82347L8.35417 4.86387L4.44401 11.4739H1.33333C0.597333 11.4739 0 12.0656 0 12.7946C0 13.5237 0.597333 14.1154 1.33333 14.1154H11.6081C11.7127 13.6115 11.6488 13.0651 11.3555 12.5599L11.3529 12.5573C11.0949 12.1122 10.737 11.7486 10.3203 11.4739H7.53516L12.6523 2.82218C13.0243 2.19286 12.8111 1.3837 12.1758 1.01522C11.5398 0.646738 10.7236 0.85795 10.3516 1.48727L9.89974 2.25081L9.44792 1.48727C9.215 1.09395 8.80863 0.864297 8.38151 0.837231ZM12.207 6.15235L11.6562 7.05905C11.0483 8.06016 11.0286 9.29926 11.5846 10.3222L15.7826 17.4184C16.0306 17.8384 16.4756 18.0711 16.9336 18.0711C17.1623 18.0711 17.3948 18.0133 17.6068 17.8905C18.2421 17.522 18.4547 16.7129 18.082 16.0835L16.918 14.1154H18.6667C19.4027 14.1154 20 13.5237 20 12.7946C20 12.0656 19.4027 11.4739 18.6667 11.4739H15.3555L12.207 6.15235ZM3.08333 15.4386C2.712 15.4281 2.35115 15.4852 2.00781 15.5921L1.71094 16.0926C1.33827 16.7212 1.55217 17.531 2.1875 17.8995C2.3995 18.023 2.63071 18.0814 2.85937 18.0814C3.31737 18.0814 3.76305 17.8468 4.01172 17.4275L4.72917 16.2151C4.33917 15.7641 3.76924 15.4585 3.08724 15.4386H3.08333Z" fill="#757575"/>
</svg>
