<svg width="14" height="13" viewBox="0 0 14 13" fill="none" xmlns="http://www.w3.org/2000/svg">
<path d="M11 1C10.4696 1 9.96086 1.19781 9.58579 1.54991C9.21071 1.90201 9 2.37957 9 2.87751V10.3876C9 10.8855 9.21071 11.3631 9.58579 11.7152C9.96086 12.0673 10.4696 12.2651 11 12.2651C11.5304 12.2651 12.0391 12.0673 12.4142 11.7152C12.7893 11.3631 13 10.8855 13 10.3876C13 9.88962 12.7893 9.41206 12.4142 9.05996C12.0391 8.70786 11.5304 8.51005 11 8.51005H3C2.46957 8.51005 1.96086 8.70786 1.58579 9.05996C1.21071 9.41206 1 9.88962 1 10.3876C1 10.8855 1.21071 11.3631 1.58579 11.7152C1.96086 12.0673 2.46957 12.2651 3 12.2651C3.53043 12.2651 4.03914 12.0673 4.41421 11.7152C4.78929 11.3631 5 10.8855 5 10.3876V2.87751C5 2.37957 4.78929 1.90201 4.41421 1.54991C4.03914 1.19781 3.53043 1 3 1C2.46957 1 1.96086 1.19781 1.58579 1.54991C1.21071 1.90201 1 2.37957 1 2.87751C1 3.37546 1.21071 3.85301 1.58579 4.20511C1.96086 4.55722 2.46957 4.75503 3 4.75503H11C11.5304 4.75503 12.0391 4.55722 12.4142 4.20511C12.7893 3.85301 13 3.37546 13 2.87751C13 2.37957 12.7893 1.90201 12.4142 1.54991C12.0391 1.19781 11.5304 1 11 1Z" stroke="black" stroke-width="1.2" stroke-linecap="round" stroke-linejoin="round"/>
</svg>
