<svg width="24" height="27" viewBox="0 0 24 27" fill="none" xmlns="http://www.w3.org/2000/svg">
<path d="M0.483458 0.418859C0.14416 0.82594 -0.0274234 1.34693 0.00357275 1.87596V24.8581C-0.0256695 25.3869 0.145708 25.9073 0.483458 26.3152L0.561984 26.3937L13.4316 13.5154V13.21L0.561984 0.340332L0.483458 0.418859Z" fill="url(#paint0_linear_533_233)"/>
<path d="M17.7244 17.808L13.4316 13.5152V13.2098L17.7244 8.92578L17.8204 8.97813L22.9072 11.8662C24.3643 12.6863 24.3643 14.0387 22.9072 14.8676L17.8204 17.7557L17.7244 17.808Z" fill="url(#paint1_linear_533_233)"/>
<path d="M17.8203 17.7557L13.4577 13.3931L0.483398 26.3151C0.782456 26.5609 1.15479 26.7004 1.54178 26.7114C1.92878 26.7225 2.30846 26.6045 2.62107 26.3761L17.7942 17.7557" fill="url(#paint2_linear_533_233)"/>
<path d="M17.8203 8.97815L2.62107 0.348947C2.31181 0.111187 1.92961 -0.0118331 1.53973 0.000897596C1.14985 0.0136283 0.776483 0.16132 0.483398 0.418748L13.4316 13.3669L17.8203 8.97815Z" fill="url(#paint3_linear_533_233)"/>
<path opacity="0.1" d="M17.7242 17.6597L2.62088 26.2278C2.31961 26.4523 1.95393 26.5735 1.57822 26.5735C1.20251 26.5735 0.836829 26.4523 0.535558 26.2278L0.457031 26.3063L0.535558 26.3848C0.836829 26.6093 1.20251 26.7306 1.57822 26.7306C1.95393 26.7306 2.31961 26.6093 2.62088 26.3848L17.794 17.7644L17.7242 17.6597Z" fill="black"/>
<path opacity="0.07" d="M0.483198 26.1753C0.144883 25.7643 -0.0264241 25.241 0.00331273 24.7095V24.8578C-0.0259295 25.3866 0.145448 25.907 0.483198 26.3149L0.561724 26.2364L0.483198 26.1753Z" fill="black"/>
<path opacity="0.07" d="M22.9074 14.7106L17.7246 17.6597L17.8206 17.7557L22.9074 14.8328C23.2057 14.7016 23.4639 14.4935 23.6555 14.2298C23.8472 13.9661 23.9653 13.6563 23.998 13.332C23.9385 13.6318 23.8085 13.9131 23.6189 14.1528C23.4293 14.3925 23.1854 14.5837 22.9074 14.7106Z" fill="black"/>
<path opacity="0.3" d="M2.62146 0.506011L22.9075 12.0145C23.1828 12.1383 23.4251 12.3253 23.6146 12.5603C23.8041 12.7953 23.9355 13.0716 23.9982 13.3669C23.9673 13.0421 23.8498 12.7315 23.6579 12.4675C23.4661 12.2035 23.2069 11.9959 22.9075 11.8662L2.62146 0.348958C1.19053 -0.471209 0.00390625 0.209355 0.00390625 1.87586V2.02419C0.00390625 0.366408 1.19053 -0.322881 2.62146 0.506011Z" fill="white"/>
<defs>
<linearGradient id="paint0_linear_533_233" x1="12.2974" y1="1.63166" x2="-5.14428" y2="19.0733" gradientUnits="userSpaceOnUse">
<stop stop-color="#008EFF"/>
<stop offset="0.01" stop-color="#008FFF"/>
<stop offset="0.26" stop-color="#00ACFF"/>
<stop offset="0.51" stop-color="#00C0FF"/>
<stop offset="0.76" stop-color="#00CDFF"/>
<stop offset="1" stop-color="#00D1FF"/>
</linearGradient>
<linearGradient id="paint1_linear_533_233" x1="23.0817" y1="13.3669" x2="-2.06428" y2="13.3669" gradientUnits="userSpaceOnUse">
<stop stop-color="#FFD800"/>
<stop offset="1" stop-color="#FF8A00"/>
</linearGradient>
<linearGradient id="paint2_linear_533_233" x1="15.4384" y1="15.7489" x2="-8.20688" y2="39.3941" gradientUnits="userSpaceOnUse">
<stop stop-color="#FF3A44"/>
<stop offset="1" stop-color="#B11162"/>
</linearGradient>
<linearGradient id="paint3_linear_533_233" x1="-2.77982" y1="-7.23323" x2="7.78637" y2="3.32423" gradientUnits="userSpaceOnUse">
<stop stop-color="#328E71"/>
<stop offset="0.07" stop-color="#2D9571"/>
<stop offset="0.48" stop-color="#15BD74"/>
<stop offset="0.8" stop-color="#06D575"/>
<stop offset="1" stop-color="#00DE76"/>
</linearGradient>
</defs>
</svg>
