<svg width="24" height="21" viewBox="0 0 24 21" fill="none" xmlns="http://www.w3.org/2000/svg">
<path d="M4.59487 20.3148C4.34178 20.746 3.89183 20.9803 3.42312 20.9803C3.18877 20.9803 2.95442 20.9241 2.73882 20.7929C2.09202 20.4179 1.87646 19.593 2.25138 18.9462L3.58245 16.734C3.72306 16.4996 3.96679 16.359 4.23862 16.359H4.43548C5.40103 16.359 6.07595 16.9402 6.27281 17.5027L4.59487 20.3148ZM15.8624 15.9653L7.14458 15.9747H1.35147C0.582802 15.9747 -0.0359161 15.3372 0.00162248 14.5686C0.0297439 13.8374 0.66717 13.2844 1.39835 13.2844H5.59787L10.5754 4.81036L8.96315 2.06378C8.59757 1.43573 8.75692 0.610834 9.3756 0.217108C10.0318 -0.204722 10.8942 0.0108855 11.2785 0.667057L12.1409 2.13877H12.1502L13.0126 0.667057C13.3969 0.0108855 14.2687 -0.20473 14.9155 0.217108C15.5342 0.610817 15.6935 1.43574 15.3279 2.06378L13.7157 4.81036L12.1502 7.48194L8.74746 13.2844V13.2938H13.7625C14.3906 13.2938 15.178 13.6312 15.4967 14.1749L15.5248 14.2311C15.806 14.7092 15.9654 15.0373 15.9654 15.5153C15.956 15.7778 15.8624 15.9653 15.8624 15.9653ZM22.6304 15.9747H20.2683V15.984L21.9931 18.918C22.368 19.5555 22.1899 20.3991 21.5431 20.7928C21.3275 20.9241 21.0838 20.9897 20.8401 20.9897C20.3714 20.9897 19.9214 20.746 19.6683 20.3241L17.1186 15.984L15.5344 13.2843L13.4909 9.78779C12.891 8.76602 12.8629 7.49117 13.4347 6.47883C13.8377 5.76641 14.1471 5.57893 14.1471 5.57893L18.6935 13.2749H22.6024C23.3335 13.2749 23.9615 13.8374 23.9991 14.5591C24.0272 15.3372 23.4085 15.9747 22.6304 15.9747Z" fill="white"/>
</svg>
