<svg width="14" height="3" viewBox="0 0 14 3" fill="none" xmlns="http://www.w3.org/2000/svg">
<path d="M7.00024 1.95312C7.28839 1.95312 7.52197 1.73976 7.52197 1.47656C7.52197 1.21336 7.28839 1 7.00024 1C6.7121 1 6.47852 1.21336 6.47852 1.47656C6.47852 1.73976 6.7121 1.95312 7.00024 1.95312Z" fill="#757575" stroke="#757575" stroke-width="1.6" stroke-linecap="round" stroke-linejoin="round"/>
<path d="M12.4788 1.95312C12.7669 1.95312 13.0005 1.73976 13.0005 1.47656C13.0005 1.21336 12.7669 1 12.4788 1C12.1906 1 11.957 1.21336 11.957 1.47656C11.957 1.73976 12.1906 1.95312 12.4788 1.95312Z" fill="#757575" stroke="#757575" stroke-width="1.6" stroke-linecap="round" stroke-linejoin="round"/>
<path d="M1.52173 1.95312C1.80987 1.95312 2.04346 1.73976 2.04346 1.47656C2.04346 1.21336 1.80987 1 1.52173 1C1.23359 1 1 1.21336 1 1.47656C1 1.73976 1.23359 1.95312 1.52173 1.95312Z" fill="#757575" stroke="#757575" stroke-width="1.6" stroke-linecap="round" stroke-linejoin="round"/>
</svg>
