<svg width="20" height="20" viewBox="0 0 20 20" fill="none" xmlns="http://www.w3.org/2000/svg">
<path fill-rule="evenodd" clip-rule="evenodd" d="M3.86426 17.0317C4.04248 18.3579 5.1919 19.3812 6.58329 19.3812H16.641C18.156 19.3812 19.3841 18.1681 19.3841 16.6718V6.73725C19.3841 5.3635 18.349 4.22854 17.0072 4.05176V13.3689C17.0072 15.3918 15.3697 17.0317 13.3498 17.0317H3.86426Z" fill="black"/>
<path fill-rule="evenodd" clip-rule="evenodd" d="M2.74302 0C1.22809 0 0 1.22993 0 2.74713V12.8199C0 14.3371 1.22809 15.5671 2.74302 15.5671H12.8008C14.3157 15.5671 15.5438 14.3371 15.5438 12.8199V2.74713C15.5438 1.22993 14.3157 0 12.8008 0H2.74302ZM7.8862 2.65002C8.34188 5.21701 10.3354 7.21355 12.8986 7.66991C13.0125 7.72695 13.0125 7.84104 12.8986 7.89808C10.3354 8.35444 8.34188 10.351 7.8862 12.918C7.82925 13.0321 7.65837 13.0321 7.65837 12.918C7.2027 10.351 5.20914 8.35444 2.64599 7.89808C2.53207 7.84104 2.53207 7.66991 2.64599 7.66991C5.20914 7.21355 7.2027 5.21701 7.65837 2.65002C7.71533 2.53593 7.8862 2.53593 7.8862 2.65002Z" fill="black"/>
</svg>
