<svg width="14" height="3" viewBox="0 0 14 3" fill="none" xmlns="http://www.w3.org/2000/svg">
<path d="M7.00024 2.04349C7.28839 2.04349 7.52197 1.80989 7.52197 1.52174C7.52197 1.23359 7.28839 1 7.00024 1C6.7121 1 6.47852 1.23359 6.47852 1.52174C6.47852 1.80989 6.7121 2.04349 7.00024 2.04349Z" fill="#757575" stroke="#757575" stroke-width="1.6" stroke-linecap="round" stroke-linejoin="round"/>
<path d="M12.4778 2.04349C12.7659 2.04349 12.9995 1.80989 12.9995 1.52174C12.9995 1.23359 12.7659 1 12.4778 1C12.1896 1 11.9561 1.23359 11.9561 1.52174C11.9561 1.80989 12.1896 2.04349 12.4778 2.04349Z" fill="#757575" stroke="#757575" stroke-width="1.6" stroke-linecap="round" stroke-linejoin="round"/>
<path d="M1.52173 2.04349C1.80987 2.04349 2.04346 1.80989 2.04346 1.52174C2.04346 1.23359 1.80987 1 1.52173 1C1.23359 1 1 1.23359 1 1.52174C1 1.80989 1.23359 2.04349 1.52173 2.04349Z" fill="#757575" stroke="#757575" stroke-width="1.6" stroke-linecap="round" stroke-linejoin="round"/>
</svg>
