<svg xmlns="http://www.w3.org/2000/svg" width="20" height="20" viewBox="0 0 20 20" fill="#757575" stroke="none">
    <path fill-rule="evenodd" clip-rule="evenodd" d="M3.04648 2.71311C3.01614 2.83514 3 2.97146 3 3.121V16.8786C3 17.0285 3.01616 17.165 3.04655 17.287L10.3329 9.99958L3.04648 2.71311ZM3.75631 17.9915C3.99659 18.0245 4.27907 17.9622 4.58067 17.7912L13.217 12.8836L11.04 10.7067L3.75631 17.9915ZM14.1192 12.3716L16.7116 10.8987C17.5806 10.4042 17.5806 9.59609 16.7116 9.10217L14.1179 7.62838L11.7471 9.99952L14.1192 12.3716ZM13.2161 7.11597L4.58067 2.20906C4.27902 2.03765 3.99649 1.97537 3.75619 2.0086L11.04 9.29242L13.2161 7.11597Z"></path>
</svg>