<svg width="20" height="20" viewBox="0 0 20 20" fill="none" xmlns="http://www.w3.org/2000/svg">
<path d="M7.21729 8.52703L12.7811 5.74512" stroke="#757575" stroke-width="2" stroke-linecap="round" stroke-linejoin="round"/>
<path d="M7.21729 11.3916L12.7811 14.1735" stroke="#757575" stroke-width="2" stroke-linecap="round" stroke-linejoin="round"/>
<path fill-rule="evenodd" clip-rule="evenodd" d="M4.27284 6.72656C6.08027 6.72656 7.54569 8.19198 7.54569 9.99941C7.54569 11.8068 6.08027 13.2722 4.27284 13.2722C2.46542 13.2722 1 11.8068 1 9.99941C1 8.19198 2.46542 6.72656 4.27284 6.72656V6.72656Z" stroke="#757575" stroke-width="2" stroke-linecap="round" stroke-linejoin="round"/>
<path fill-rule="evenodd" clip-rule="evenodd" d="M15.7274 1C17.5349 1 19.0003 2.46542 19.0003 4.27284C19.0003 6.08027 17.5349 7.54569 15.7274 7.54569C13.92 7.54569 12.4546 6.08027 12.4546 4.27284C12.4546 2.46542 13.92 1 15.7274 1V1Z" stroke="#757575" stroke-width="2" stroke-linecap="round" stroke-linejoin="round"/>
<path fill-rule="evenodd" clip-rule="evenodd" d="M15.7274 12.4551C17.5349 12.4551 19.0003 13.9205 19.0003 15.7279C19.0003 17.5353 17.5349 19.0008 15.7274 19.0008C13.92 19.0008 12.4546 17.5353 12.4546 15.7279C12.4546 13.9205 13.92 12.4551 15.7274 12.4551V12.4551Z" stroke="#757575" stroke-width="2" stroke-linecap="round" stroke-linejoin="round"/>
</svg>
